PathFileType	4	(X/Y/Z)	D:\TRACE\v60_Jaco2_6-2-23\JustBodyDRS_Motion1_4-v60.trc
DataRate	CameraRate	NumFrames	NumMarkers	Units	OrigDataRate	OrigDataStartFrame	OrigNumFrames
100.00	100.00	      24	9	mm	100.00	4348	      6956
Frame#	Time	front left toe			Front right toe			aft left toe			aft right toe			Arm			FL body			FR body			AL Body			AR Body			
		X1	Y1	Z1	X2	Y2	Z2	X3	Y3	Z3	X4	Y4	Z4	X5	Y5	Z5	X6	Y6	Z6	X7	Y7	Z7	X8	Y8	Z8	X9	Y9	Z9	

4348	43.470	-182.05133	111.53774	-186.00198	147.70827	7.64230	-210.14969	-176.65894	25.45149	443.31546	213.46088	129.19069	427.41727	-126.19782	1197.86328	-329.66254	-95.64445	566.46771	-329.02844	64.65954	567.43475	-338.87720	-37.79747	560.41968	615.59521	118.15182	555.12994	606.39020	
4349	43.480	-183.36850	104.98662	-185.33971	148.70569	7.43539	-210.10991	-176.06699	26.09420	443.26245	212.66968	121.05087	428.38409	-125.48947	1197.70679	-330.29825	-94.47041	566.20538	-329.11401	65.64648	567.40179	-338.59058	-37.60498	560.80505	615.46063	118.66045	555.66705	606.52789	
4350	43.490	-184.86591	97.79543	-184.69791	149.67215	7.53358	-210.08786	-174.78340	26.25011	443.21475	211.58563	111.62215	429.21753	-124.70557	1197.40698	-330.97345	-93.03151	566.10352	-329.41150	66.89849	567.25696	-338.70023	-36.84777	561.39923	615.33875	119.52048	556.48889	606.53674	
4351	43.500	-186.42654	90.02739	-184.20285	150.61505	7.35791	-210.24467	-173.92903	26.33287	442.88791	210.65518	101.00364	429.67850	-123.67431	1197.11719	-331.80084	-92.05010	565.67065	-329.55670	68.37254	567.02429	-339.31021	-36.36296	561.67358	615.26965	119.72799	556.45721	606.79492	
4352	43.510	-187.18637	81.10345	-183.44548	151.31035	7.03152	-210.39053	-173.38776	26.63118	442.77405	209.71718	91.57682	429.81857	-122.68108	1196.74805	-332.51630	-89.95721	565.31006	-329.40503	69.70143	566.78833	-338.93677	-36.03558	561.84485	615.17615	120.64078	557.07605	606.98676	
4353	43.520	-188.79103	72.13082	-182.85779	152.36407	6.90041	-210.61758	-172.42168	26.82043	442.54605	209.29469	82.31447	429.96021	-122.03896	1196.33191	-333.29019	-89.62696	565.06873	-329.80655	70.39565	566.38794	-338.74646	-35.17254	561.92834	614.92029	121.05521	557.35089	606.72638	
4354	43.530	-190.35864	63.18261	-181.88968	153.06523	6.73804	-210.54388	-171.46764	27.07926	442.44934	208.60896	72.54070	429.48257	-120.55748	1196.11682	-333.73651	-88.13885	564.99316	-329.89880	71.75297	566.14734	-338.79147	-34.05735	562.63733	614.42719	122.22072	557.87488	606.35852	
4355	43.540	-191.51749	54.50933	-181.61522	153.87505	6.66412	-210.67194	-170.97705	27.40100	442.31024	208.55295	63.03402	428.46088	-119.15680	1196.15088	-333.88550	-87.15243	564.80902	-329.93481	73.23123	565.97583	-339.33688	-33.72060	562.92017	614.43237	122.93041	557.96130	606.18646	
4356	43.550	-192.48692	46.53771	-181.83025	154.57281	6.59604	-210.71083	-169.92915	27.78109	442.32977	209.49588	54.25755	427.17462	-117.61353	1196.14978	-334.44617	-86.06869	564.71411	-330.31760	73.85790	565.85089	-339.37292	-33.03014	563.08728	614.22308	123.90868	558.08081	606.10638	
4357	43.560	-193.18517	38.80159	-182.54997	155.96559	6.37282	-210.69098	-168.86656	27.78551	442.31027	210.54312	45.83902	425.18707	-116.11010	1195.99158	-334.90097	-85.15176	564.74652	-330.59012	75.41734	565.74524	-339.62924	-31.96887	563.14673	614.05212	124.79997	557.94543	605.93756	
4358	43.570	-192.88940	31.30656	-183.53085	156.72139	6.24964	-210.76657	-168.13536	27.77601	442.22299	211.83366	37.89288	423.15527	-114.09242	1196.05603	-335.19531	-83.28312	564.52820	-330.59299	76.15044	565.83423	-340.08875	-31.14386	563.18323	613.85895	125.36660	557.68152	605.77142	
4359	43.580	-192.70091	24.82640	-184.81125	157.33177	5.99235	-211.01109	-167.15720	27.83331	442.15765	213.38718	32.05198	420.89365	-112.01077	1196.21362	-335.52777	-83.05111	564.81873	-331.14581	77.05341	565.49304	-339.91830	-29.75515	563.41663	613.60120	126.37258	557.54871	605.50769	
4360	43.590	-191.76352	18.77106	-186.26962	158.23103	5.93823	-211.06915	-165.93399	28.27649	441.96671	215.35864	32.08028	419.02130	-109.83135	1196.78333	-335.55801	-81.70882	564.79956	-331.48148	78.58560	565.38275	-340.33847	-29.15289	563.55823	613.35791	127.38934	557.94690	605.22015	
4361	43.600	-190.66257	13.64786	-187.98607	159.15810	5.82075	-211.06062	-165.12793	28.70032	441.71552	216.06808	30.33851	419.27115	-107.45238	1197.24243	-335.38248	-80.35926	564.35077	-331.41907	79.92116	565.08380	-340.66040	-27.83201	564.44464	613.24866	128.24133	559.02881	605.13190	
4362	43.610	-191.27226	13.18658	-188.83740	160.24799	5.53939	-210.93193	-163.52448	29.24057	441.77084	217.44547	31.33372	419.47275	-105.55038	1197.47791	-336.39215	-78.59753	564.14539	-331.93262	81.43792	564.88544	-340.76086	-27.07578	566.37341	613.11298	128.77634	560.65222	604.98279	
4363	43.620	-191.09401	11.02238	-188.81537	160.75912	5.69461	-210.98099	-162.73805	29.75453	441.66467	217.77382	31.52591	420.14142	-104.89132	1197.34045	-338.16724	-76.76569	565.21936	-331.84201	83.20468	565.45123	-340.68567	-26.49144	567.40594	613.07910	129.90175	561.70056	605.16943	
4364	43.630	-190.59879	11.97085	-188.41745	161.93132	7.88999	-211.97362	-161.41460	31.89024	440.52307	218.86388	30.52521	420.10205	-104.53824	1197.14136	-340.10590	-74.91286	567.14917	-332.06274	84.97299	566.72186	-340.64423	-25.91179	568.20142	613.07843	130.05241	561.84436	605.33014	
4365	43.640	-188.77963	11.44654	-188.14403	160.47362	12.05877	-210.32744	-158.20398	34.73567	441.63351	220.55385	30.33277	419.46069	-102.19611	1197.71777	-340.94244	-73.02911	568.60419	-332.42645	87.23638	568.02917	-340.54449	-25.71717	568.30554	612.79669	130.13274	561.90649	605.25732	
4366	43.650	-187.54535	11.96109	-189.67091	159.30479	17.10960	-207.40846	-153.64323	40.96318	441.93698	221.19748	30.69804	419.42334	-97.87434	1199.12183	-340.78690	-71.66376	569.41870	-332.99243	88.35583	568.96167	-340.63672	-25.77642	569.09863	611.86224	130.81726	563.03363	605.07849	
4367	43.660	-186.54137	11.45860	-189.18808	159.52351	27.14447	-206.91988	-147.79250	49.36774	441.67743	222.20450	30.88377	419.31592	-93.01987	1201.40808	-340.16302	-69.94934	569.47241	-333.69608	90.14919	568.98285	-341.29913	-25.59684	570.18988	611.53937	130.79074	564.09033	604.77454	
4368	43.670	-186.01006	11.42471	-189.44865	162.17229	37.46857	-206.07071	-143.72687	61.58602	440.23044	223.24992	31.03378	419.48279	-89.91350	1203.36951	-339.53229	-67.40046	568.83099	-333.96155	92.74227	568.47919	-341.39035	-25.71122	571.04260	611.16034	130.52921	564.63043	604.63068	
4369	43.680	-184.66147	11.31102	-188.88147	164.91161	49.63015	-207.03654	-142.75415	73.18298	439.38712	224.46332	30.81396	419.48593	-86.72241	1203.79224	-340.05270	-65.88032	568.93732	-334.81161	94.08253	568.12360	-341.28043	-25.50477	570.79199	611.03137	130.59254	564.62103	604.60486	
4370	43.690	-183.33296	11.18155	-189.47728	169.15482	62.55430	-207.78473	-144.57043	85.13964	437.85110	225.45653	30.76621	419.42184	-84.52208	1203.02551	-341.00833	-64.02828	568.83020	-335.01257	96.19606	568.12964	-341.60297	-25.02910	570.28845	610.63043	131.10156	564.16241	604.69379	
4371	43.700	-182.76462	11.43503	-189.46371	173.83156	75.42809	-208.30370	-149.51216	99.17664	435.21399	226.12726	30.84169	419.64658	-82.69382	1201.59265	-342.28094	-62.46824	568.91577	-335.31180	97.83044	567.72058	-341.29572	-24.82258	570.39856	610.01123	131.64574	563.66412	604.55347	
